<mxfile host="app.diagrams.net" modified="2024-03-25T15:58:39.044Z" agent="Mozilla/5.0 (Macintosh; Intel Mac OS X 10_15_7) AppleWebKit/537.36 (KHTML, like Gecko) Chrome/122.0.0.0 Safari/537.36" version="24.1.0" etag="0bTE_8Kzy0_HfGASh3r_" type="github">
  <diagram name="Page-1" id="YT12CVoYzvY_y6P31i-V">
    <mxGraphModel>
      <root>
        <mxCell id="0" />
        <mxCell id="1" parent="0" />
      </root>
    </mxGraphModel>
  </diagram>
</mxfile>
